<svg width="38" height="41" viewBox="0 0 38 41" fill="none" xmlns="http://www.w3.org/2000/svg">
<path d="M31.2005 12.8701H1V39.5225H31.2005V12.8701Z" stroke="white" stroke-width="2" stroke-miterlimit="10" stroke-linecap="round" stroke-linejoin="round"/>
<path d="M10.7336 16.9616V9.16735C10.7336 6.20437 13.1378 3.80176 16.0997 3.80176C19.0643 3.80176 21.4671 6.20437 21.4671 9.16735V16.9616" stroke="white" stroke-width="2" stroke-miterlimit="10" stroke-linecap="round" stroke-linejoin="round"/>
<path d="M15.0295 7.86071V6.14716C15.0295 3.30249 17.3335 1 20.1759 1C23.0195 1 25.3222 3.30249 25.3222 6.14716V7.86071" stroke="white" stroke-width="2" stroke-miterlimit="10" stroke-linecap="round" stroke-linejoin="round"/>
<path d="M10.7349 18.7894C11.7445 18.7894 12.563 17.971 12.563 16.9615C12.563 15.9519 11.7445 15.1335 10.7349 15.1335C9.72523 15.1335 8.90674 15.9519 8.90674 16.9615C8.90674 17.971 9.72523 18.7894 10.7349 18.7894Z" stroke="white" stroke-width="2" stroke-miterlimit="10" stroke-linecap="round" stroke-linejoin="round"/>
<path d="M21.4671 18.7894C22.4767 18.7894 23.2952 17.971 23.2952 16.9615C23.2952 15.9519 22.4767 15.1335 21.4671 15.1335C20.4574 15.1335 19.6389 15.9519 19.6389 16.9615C19.6389 17.971 20.4574 18.7894 21.4671 18.7894Z" stroke="white" stroke-width="2" stroke-miterlimit="10" stroke-linecap="round" stroke-linejoin="round"/>
<path d="M36.0217 8.04907L30.4138 10.7092L31.2005 12.87" stroke="white" stroke-width="2" stroke-miterlimit="10" stroke-linecap="round" stroke-linejoin="round"/>
<path d="M1 12.8699L6.60792 10.7624L5.82127 8.04907H36.0219V34.7027" stroke="white" stroke-width="2" stroke-miterlimit="10" stroke-linecap="round" stroke-linejoin="round"/>
<path d="M35.8319 34.7339L31.3435 36.0666" stroke="white" stroke-width="2" stroke-miterlimit="10" stroke-linecap="round" stroke-linejoin="round"/>
</svg>
