<svg width="44" height="49" viewBox="0 0 44 49" fill="none" xmlns="http://www.w3.org/2000/svg">
<path d="M43 41.3647C43 45.0289 40.0397 48 36.3885 48H7.61623C3.96343 48 1 45.0289 1 41.3647V7.63535C1 3.96957 3.96343 1 7.61623 1H36.3885C40.0397 1 43 3.96957 43 7.63535V41.3647Z" stroke="#2A3B54" stroke-width="0.582" stroke-miterlimit="10" stroke-linecap="round" stroke-linejoin="round"/>
<path d="M43 35.7476C43 39.4118 40.0397 42.3829 36.3885 42.3829H7.61623C3.96343 42.3829 1 39.4118 1 35.7476" stroke="#2A3B54" stroke-width="0.582" stroke-miterlimit="10" stroke-linecap="round" stroke-linejoin="round"/>
<path d="M42.4554 27.8716C39.4573 30.8775 35.8045 34.5417 33.5855 36.7677H7.61621C3.96343 36.7677 1 33.7965 1 30.1323" stroke="#2A3B54" stroke-width="0.582" stroke-miterlimit="10" stroke-linecap="round" stroke-linejoin="round"/>
<path d="M42.4554 27.8716C34.1631 27.8716 33.5854 28.2505 33.5854 36.7677" stroke="#2A3B54" stroke-width="0.582" stroke-miterlimit="10" stroke-linecap="round" stroke-linejoin="round"/>
<path d="M43 8.01074H1" stroke="#2A3B54" stroke-width="0.582" stroke-miterlimit="10" stroke-linecap="round" stroke-linejoin="round"/>
<path d="M10.3688 16.8867H15.7355L11.5365 21.8013H16.6703V28.8234H9.90137" stroke="#2A3B54" stroke-width="0.582" stroke-miterlimit="10" stroke-linecap="round" stroke-linejoin="round"/>
<path d="M20.1689 16.8867H23.3181V28.8234" stroke="#2A3B54" stroke-width="0.582" stroke-miterlimit="10" stroke-linecap="round" stroke-linejoin="round"/>
</svg>
