<svg width="42" height="37" viewBox="0 0 42 37" fill="none" xmlns="http://www.w3.org/2000/svg">
<path d="M35.4247 28.0008H9.40398L4.75659 9.68213H41L36.7225 23.0491H8.60997" stroke="white" stroke-width="1.78" stroke-miterlimit="10" stroke-linecap="round" stroke-linejoin="round"/>
<path d="M30.7335 36C32.3024 36 33.5742 34.7553 33.5742 33.2199C33.5742 31.6846 32.3024 30.4399 30.7335 30.4399C29.1646 30.4399 27.8928 31.6846 27.8928 33.2199C27.8928 34.7553 29.1646 36 30.7335 36Z" stroke="white" stroke-width="1.78" stroke-miterlimit="10" stroke-linecap="round" stroke-linejoin="round"/>
<path d="M14.6744 36C16.2433 36 17.5151 34.7553 17.5151 33.2199C17.5151 31.6846 16.2433 30.4399 14.6744 30.4399C13.1056 30.4399 11.8337 31.6846 11.8337 33.2199C11.8337 34.7553 13.1056 36 14.6744 36Z" stroke="white" stroke-width="1.78" stroke-miterlimit="10" stroke-linecap="round" stroke-linejoin="round"/>
<path d="M3.06918 5.05002C4.21196 5.05002 5.13838 4.14338 5.13838 3.02499C5.13838 1.9066 4.21196 1 3.06918 1C1.9264 1 1 1.9066 1 3.02499C1 4.14338 1.9264 5.05002 3.06918 5.05002Z" stroke="white" stroke-width="1.78" stroke-miterlimit="10" stroke-linecap="round" stroke-linejoin="round"/>
<path d="M4.75677 9.68272L3.06934 3.02515" stroke="white" stroke-width="1.78" stroke-miterlimit="10" stroke-linecap="round" stroke-linejoin="round"/>
<path d="M7.32568 18.5947H38.1489" stroke="white" stroke-width="1.78" stroke-miterlimit="10" stroke-linecap="round" stroke-linejoin="round"/>
<path d="M6.04248 14.1387H39.5751" stroke="white" stroke-width="1.78" stroke-miterlimit="10" stroke-linecap="round" stroke-linejoin="round"/>
<path d="M28.4562 9.68213L26.9636 23.0491" stroke="white" stroke-width="1.78" stroke-miterlimit="10" stroke-linecap="round" stroke-linejoin="round"/>
<path d="M16.1152 9.68213L17.7178 23.0491" stroke="white" stroke-width="1.78" stroke-miterlimit="10" stroke-linecap="round" stroke-linejoin="round"/>
</svg>
