<svg width="44" height="33" viewBox="0 0 44 33" fill="none" xmlns="http://www.w3.org/2000/svg">
<path d="M8.29565 4.07005V1H39.3811V28.4634" stroke="white" stroke-width="2" stroke-miterlimit="10" stroke-linecap="round" stroke-linejoin="round"/>
<path d="M39.3811 31.9986C37.5789 31.9986 36.1176 30.536 36.1176 28.734V12.0729C36.1176 10.2709 34.6563 8.80836 32.8555 8.80836H20.0705C19.099 8.80836 18.1993 8.60415 17.4611 7.86597L15.3125 5.71625C14.5757 4.97806 13.5683 4.56274 12.5265 4.56274H4.26489C2.46134 4.56274 1 6.02533 1 7.82596V28.7326C1 30.5346 2.46134 31.9972 4.26489 31.9972H39.3811" stroke="white" stroke-width="2" stroke-miterlimit="10" stroke-linecap="round" stroke-linejoin="round"/>
<path d="M39.3811 8.80981C41.1833 8.80981 42.6446 10.2724 42.6446 12.0744V28.7354C42.6446 30.5374 41.1819 32 39.3811 32" stroke="white" stroke-width="2" stroke-miterlimit="10" stroke-linecap="round" stroke-linejoin="round"/>
</svg>
