<svg width="42" height="37" viewBox="0 0 42 37" fill="none" xmlns="http://www.w3.org/2000/svg">
<path d="M38.5071 22.3237V35.9999H3.49268V22.3237" stroke="white" stroke-width="2" stroke-miterlimit="10" stroke-linecap="round" stroke-linejoin="round"/>
<path d="M41 14.4072H1V22.3239H41V14.4072Z" stroke="white" stroke-width="2" stroke-miterlimit="10" stroke-linecap="round" stroke-linejoin="round"/>
<path d="M21.4609 12.2464C14.9645 12.2035 13.0506 12.4377 10.7176 11.3951C8.62052 10.4568 7.88044 8.35067 9.066 6.69103C10.2516 5.03254 12.9128 4.44802 15.0099 5.38512C17.3429 6.42892 18.0771 7.84849 21.4741 12.2301L21.4609 12.2464Z" stroke="white" stroke-width="2" stroke-miterlimit="10" stroke-linecap="round" stroke-linejoin="round"/>
<path d="M21.4858 12.2464C27.9808 12.2035 29.8946 12.4377 32.2276 11.3951C34.3262 10.4568 35.0648 8.35067 33.8792 6.69103C32.6937 5.03254 30.0324 4.44802 27.9368 5.38512C25.6038 6.42892 24.8696 7.84849 21.4741 12.2301L21.4858 12.2464Z" stroke="white" stroke-width="2" stroke-miterlimit="10" stroke-linecap="round" stroke-linejoin="round"/>
<path d="M17.0205 1C19.5792 4.37497 20.6021 7.34286 21.4609 12.2464" stroke="white" stroke-width="2" stroke-miterlimit="10" stroke-linecap="round" stroke-linejoin="round"/>
<path d="M25.035 3.29517C22.3913 6.06241 22.1363 9.16715 21.9648 11.7975" stroke="white" stroke-width="2" stroke-miterlimit="10" stroke-linecap="round" stroke-linejoin="round"/>
<path d="M21.0007 36.0001V14.4072" stroke="white" stroke-width="2" stroke-miterlimit="10" stroke-linecap="round" stroke-linejoin="round"/>
</svg>
