<svg width="42" height="37" viewBox="0 0 42 37" fill="none" xmlns="http://www.w3.org/2000/svg">
<path d="M22.4216 1.55839C21.6219 0.81387 20.3826 0.81387 19.5796 1.55839L1.32617 18.4887C0.652575 19.1131 1.09224 20.2449 2.00641 20.2449H5.03094V34.0552C5.03094 35.1303 5.89531 36 6.96543 36H35.0358C36.1026 36 36.9669 35.1303 36.9669 34.0552V20.2449H39.9915C40.9106 20.2449 41.3453 19.1131 40.6751 18.4887L22.4216 1.55839ZM25.3964 28.1575C25.3964 28.695 24.9617 29.1307 24.4275 29.1307H17.5737C17.0395 29.1307 16.6048 28.6967 16.6048 28.1575V21.2615C16.6048 20.7223 17.0395 20.2883 17.5737 20.2883H24.4275C24.9617 20.2883 25.3964 20.7223 25.3964 21.2615V28.1575Z" stroke="white" stroke-width="2" stroke-miterlimit="10" stroke-linecap="round" stroke-linejoin="round"/>
</svg>
