<svg width="42" height="40" viewBox="0 0 42 40" fill="none" xmlns="http://www.w3.org/2000/svg">
<path d="M32.7914 24.2839L24.7395 32.3338C24.028 33.0453 22.8754 33.0453 22.1626 32.3338C21.4523 31.6236 21.4523 30.4699 22.1626 29.7584L30.2145 21.7085" stroke="white" stroke-width="2" stroke-miterlimit="10" stroke-linecap="round" stroke-linejoin="round"/>
<path d="M29.887 21.2207L36.8913 14.2158C37.8277 13.2783 39.3459 13.2783 40.2822 14.2158C41.2174 15.1521 41.2174 16.669 40.2835 17.6053L33.2779 24.6101L29.887 21.2207Z" stroke="white" stroke-width="2" stroke-miterlimit="10" stroke-linecap="round" stroke-linejoin="round"/>
<path d="M36.0909 14.9448L33.3151 14.946L27.094 21.1641" stroke="white" stroke-width="2" stroke-miterlimit="10" stroke-linecap="round" stroke-linejoin="round"/>
<path d="M20.9543 33.541L22.1625 32.333" stroke="white" stroke-width="2" stroke-miterlimit="10" stroke-linecap="round" stroke-linejoin="round"/>
<path d="M30.9147 26.6455V38.2738H1V8.82129" stroke="white" stroke-width="2" stroke-miterlimit="10" stroke-linecap="round" stroke-linejoin="round"/>
<path d="M8.82471 1H30.9149V16.7515" stroke="white" stroke-width="2" stroke-miterlimit="10" stroke-linecap="round" stroke-linejoin="round"/>
<path d="M23.551 15.8389H9.74365" stroke="white" stroke-width="2" stroke-miterlimit="10" stroke-linecap="round" stroke-linejoin="round"/>
<path d="M23.551 19.9805H9.74365" stroke="white" stroke-width="2" stroke-miterlimit="10" stroke-linecap="round" stroke-linejoin="round"/>
<path d="M20.8481 24.1235H9.74365" stroke="white" stroke-width="2" stroke-miterlimit="10" stroke-linecap="round" stroke-linejoin="round"/>
<path d="M8.82458 8.82145H1L8.82458 1V8.82145Z" stroke="white" stroke-width="2" stroke-miterlimit="10" stroke-linecap="round" stroke-linejoin="round"/>
</svg>
