<svg width="43" height="33" viewBox="0 0 43 33" fill="none" xmlns="http://www.w3.org/2000/svg">
<path d="M11.1738 21.0213L26.435 29.6451V3.77148L11.1738 12.3953V21.0213Z" stroke="white" stroke-width="2" stroke-miterlimit="10" stroke-linecap="round" stroke-linejoin="round"/>
<path d="M11.1736 12.3955H3.2124V21.0204H11.1736V12.3955Z" stroke="white" stroke-width="2" stroke-miterlimit="10" stroke-linecap="round" stroke-linejoin="round"/>
<path d="M2.99138 13.6802C1.82108 14.1859 1 15.3506 1 16.708C1 18.0654 1.82108 19.2291 2.99138 19.7359" stroke="white" stroke-width="2" stroke-miterlimit="10" stroke-linecap="round" stroke-linejoin="round"/>
<path d="M26.9375 11.5996C28.9136 12.4535 30.2974 14.4184 30.2974 16.7084C30.2974 18.9985 28.9125 20.9623 26.9375 21.8173" stroke="white" stroke-width="2" stroke-miterlimit="10" stroke-linecap="round" stroke-linejoin="round"/>
<path d="M3.2124 21.021H7.74585V31.4138H5.20269L3.2124 21.021Z" stroke="white" stroke-width="2" stroke-miterlimit="10" stroke-linecap="round" stroke-linejoin="round"/>
<path d="M35.6057 23.7134L38.6207 25.4583" stroke="white" stroke-width="2" stroke-miterlimit="10" stroke-linecap="round" stroke-linejoin="round"/>
<path d="M30.3235 28.9795L32.0587 31.9997" stroke="white" stroke-width="2" stroke-miterlimit="10" stroke-linecap="round" stroke-linejoin="round"/>
<path d="M30.3596 4.01473L32.1047 1" stroke="white" stroke-width="2" stroke-miterlimit="10" stroke-linecap="round" stroke-linejoin="round"/>
<path d="M35.6265 9.29804L38.647 7.56299" stroke="white" stroke-width="2" stroke-miterlimit="10" stroke-linecap="round" stroke-linejoin="round"/>
<path d="M37.5491 16.5083L41.0305 16.5138" stroke="white" stroke-width="2" stroke-miterlimit="10" stroke-linecap="round" stroke-linejoin="round"/>
</svg>
