<svg width="42" height="42" viewBox="0 0 42 42" fill="none" xmlns="http://www.w3.org/2000/svg">
<path d="M29.7494 12.2498C35.2719 17.7758 38.2846 22.1293 39.9617 26.8159C41.6354 31.5042 41.4655 35.353 38.1197 38.7039C34.7689 42.0515 33.6848 41.4652 30.9219 38.7039C28.1606 35.9409 26.2871 33.7925 29.5796 30.4999C31.9261 28.1532 31.3665 25.5901 29.5796 22.464C27.7843 19.3197 22.6782 14.2134 19.5372 12.418C16.4113 10.6326 13.8449 10.0747 11.5 12.418C8.20586 15.7139 6.05913 13.8403 3.2979 11.079C0.535009 8.31598 -0.0528769 7.22842 3.2979 3.88085C6.64702 0.533282 10.4941 0.365066 15.1855 2.03885C19.8686 3.71097 24.222 6.72547 29.7494 12.2498Z" stroke="white" stroke-width="2" stroke-miterlimit="10" stroke-linecap="round" stroke-linejoin="round"/>
</svg>
