<svg width="18" height="20" viewBox="0 0 18 20" fill="none" xmlns="http://www.w3.org/2000/svg">
<path d="M5.16357 3.50697V3.05806C5.16357 1.8849 6.12204 0.928711 7.30279 0.928711H10.9823C12.1616 0.928711 13.1215 1.8849 13.1215 3.05806V3.57812" stroke="#7F2302" stroke-width="0.582" stroke-miterlimit="10" stroke-linecap="round" stroke-linejoin="round"/>
<path d="M15.3852 6.72217V17.7332C15.3852 18.4332 14.8156 19.0002 14.1116 19.0002H4.17384C3.47053 19.0002 2.90088 18.4332 2.90088 17.7332V6.72217" stroke="#7F2302" stroke-width="0.582" stroke-miterlimit="10" stroke-linecap="round" stroke-linejoin="round"/>
<path d="M16.9999 4.92746C16.9999 4.22812 16.4296 3.65967 15.727 3.65967H2.56002C1.85671 3.65967 1.28564 4.22812 1.28564 4.92746V5.13732C1.28564 5.83809 1.856 6.4044 2.56002 6.4044H15.727C16.4296 6.4044 16.9999 5.83809 16.9999 5.13732V4.92746Z" stroke="#7F2302" stroke-width="0.582" stroke-miterlimit="10" stroke-linecap="round" stroke-linejoin="round"/>
<path d="M9.14355 8.30176V16.9658" stroke="#7F2302" stroke-width="0.582" stroke-miterlimit="10" stroke-linecap="round" stroke-linejoin="round"/>
<path d="M5.67822 8.30176V16.9658" stroke="#7F2302" stroke-width="0.582" stroke-miterlimit="10" stroke-linecap="round" stroke-linejoin="round"/>
<path d="M12.6074 8.30176V16.9658" stroke="#7F2302" stroke-width="0.582" stroke-miterlimit="10" stroke-linecap="round" stroke-linejoin="round"/>
</svg>
